<svg xmlns="http://www.w3.org/2000/svg" viewBox="0 0 100 50" width="100" height="50"><g><rect x="0" y="0" width="100" height="50" fill="none" stroke="none" stroke-width="0"/>
<path fill="#000000" stroke-width="0.0323002" d="M 1.5038743,8.7579003 V 41.833338 H 98.40457 V 8.7579003 H 1.5038743 M 48.726813,11.212718 V 39.37852 H 3.8940915 V 11.212718 H 48.726813 m 47.28754,0 V 39.37852 H 51.181631 V 11.212718 H 96.014353 M 56.54347,18.609471 v 14.212102 h 2.907021 v -5.264938 h 1.162808 c 0.144382,0 0.377913,-0.0438 0.506144,0.0332 0.13663,0.08195 0.220288,0.288667 0.302977,0.418999 0.193478,0.304494 0.402138,0.598717 0.593355,0.904406 0.532954,0.850982 1.119526,1.668436 1.65248,2.519418 0.242252,0.386892 0.532631,1.061612 0.896331,1.337133 0.192187,0.145577 0.692194,0.05178 0.926048,0.05178 h 2.487118 l -1.504545,-2.099515 -2.532984,-3.488425 c 0.698008,-0.227103 1.387618,-0.540512 1.85694,-1.130508 0.562024,-0.706665 0.745812,-1.545728 0.82947,-2.422518 0.151165,-1.581483 -0.149227,-3.332705 -1.555902,-4.27177 -0.964162,-0.643711 -2.241636,-0.719391 -3.359224,-0.768325 -1.717404,-0.07523 -3.447404,-0.03104 -5.168037,-0.03104 m 13.210795,0 v 14.212102 h 8.850263 v -2.519418 h -5.975543 v -3.585326 h 5.232638 v -2.390217 h -5.232638 v -3.197723 h 5.652541 V 18.60947 h -8.527261 m 11.466582,0 v 14.212102 h 2.907021 V 28.33184 c 1.832392,0 4.077904,0.22468 5.684841,-0.839935 1.732907,-1.147951 1.830454,-3.730548 1.520695,-5.587811 -0.141799,-0.849722 -0.448005,-1.682003 -1.133093,-2.246029 -1.037483,-0.854277 -2.4293,-0.961287 -3.714526,-1.017554 -1.749704,-0.07662 -3.512005,-0.03104 -5.264938,-0.03104 m -74.5489356,0.0646 v 2.519418 h 3.8114276 v 11.692684 h 2.87472 V 21.19349 h 3.779128 V 18.674072 H 6.6719114 m 12.4032896,0 v 7.816656 c 0,1.408096 -0.149938,3.037933 0.527139,4.328231 1.158933,2.208528 4.018601,2.386147 6.223609,2.231591 0.663834,-0.04651 1.336842,-0.136243 1.970314,-0.347422 0.947043,-0.31567 1.808199,-0.839903 2.325229,-1.722668 0.804373,-1.373277 0.678693,-3.022462 0.678693,-4.554333 v -7.752055 h -2.874721 v 7.07375 c 0,1.138196 0.195869,2.508436 -0.240734,3.585326 -0.591352,1.458646 -2.902078,1.487813 -4.184398,1.10722 -0.426298,-0.12652 -0.805309,-0.358242 -1.073627,-0.719617 -0.658408,-0.886706 -0.444484,-2.292186 -0.444484,-3.326924 v -7.719755 h -2.90702 m 14.922707,0 v 14.212102 h 2.87472 v -5.297238 h 1.130508 c 0.151166,0 0.376944,-0.04118 0.513897,0.0332 0.127263,0.06925 0.20543,0.237859 0.28295,0.354398 0.199616,0.29994 0.392125,0.604467 0.592063,0.904407 0.606276,0.910059 1.199954,1.829743 1.797831,2.74552 0.231916,0.355561 0.47223,0.942617 0.802984,1.207931 0.182496,0.146547 0.693163,0.05178 0.919911,0.05178 h 2.487118 c -0.226102,-0.537896 -0.723849,-1.048014 -1.069784,-1.518111 -0.677336,-0.920815 -1.343044,-1.850933 -2.012305,-2.77782 -0.294901,-0.408211 -0.742582,-0.854567 -0.92314,-1.32431 2.702237,-0.399101 3.146042,-4.080036 2.399907,-6.169344 -0.185726,-0.519969 -0.499362,-0.985803 -0.914097,-1.350667 -0.798784,-0.70295 -1.948673,-0.910414 -2.971621,-1.012709 -1.943505,-0.194318 -3.956778,-0.05914 -5.910942,-0.05914 m 25.452583,6.686148 v -4.425132 c 1.123725,0 2.657663,-0.237407 3.649926,0.405303 0.823333,0.533406 0.799107,1.959074 0.537799,2.79242 -0.09755,0.311374 -0.259694,0.617968 -0.537799,0.804114 -0.992909,0.664319 -2.519095,0.423295 -3.649926,0.423295 m 24.677377,0.646004 v -5.071136 c 1.10273,0 2.583372,-0.222387 3.553025,0.423294 0.288441,0.192025 0.505499,0.483567 0.631147,0.804115 0.386311,0.98787 0.350134,2.825139 -0.631147,3.453217 -0.965777,0.618098 -2.462569,0.39051 -3.553025,0.39051 M 36.872628,25.42482 v -4.425132 c 1.121464,0 2.657663,-0.246774 3.649927,0.39051 0.833992,0.535635 0.812027,1.996542 0.541997,2.839513 -0.09496,0.29713 -0.279397,0.596747 -0.541997,0.771814 -0.988388,0.659087 -2.524264,0.423295 -3.649927,0.423295 z"/>
</g></svg>