<svg xmlns="http://www.w3.org/2000/svg" viewBox="0 0 100 100" width="100" height="100"><g><rect x="0" y="0" width="100" height="100" fill="none" stroke="none" stroke-width="0"/>
<path d="M 66.544193,29.822762 C 59.73743,21.955958 49.690248,16.968138 38.485884,16.968138 c -11.211481,0 -21.244061,4.98782 -28.043561,12.854624 -5.6349787,6.517233 -9.0512012,15.007485 -9.0512012,24.293681 0,20.534237 16.5976502,37.155507 37.0948352,37.155507 20.489996,0 37.120591,-16.62127 37.120591,-37.155507 0,-9.286196 -3.423634,-17.776448 -9.062355,-24.293681 z M 38.361442,79.06275 38.302881,89.507871 C 32.473763,86.584867 22.865944,79.484606 19.526765,69.677557 22.228764,60.681153 31.214222,52.524708 38.090473,49.39636 V 59.624895 C 43.740347,57.76182 55.394932,46.058922 56.02463,40.011096 54.582022,33.541562 43.110502,22.289695 38.302889,21.05742 c 0,0 0.150124,9.1761 0,9.564957 -19.618385,0 -29.6144244,18.355802 -29.4972465,29.666317 0,11.193291 4.4560045,21.583365 13.9064365,26.945272 C 10.380177,81.332908 1.8634305,68.731471 1.8634305,54.116443 c 0,-20.233723 16.3853775,-36.67515 36.6224535,-36.67515 0.860531,0 1.713578,0.04035 2.566697,0.102669 36.82394,5.882611 32.320387,58.577407 -2.691139,61.518788 z"></path>
<path d="m 97.779533,27.281924 c 0,-6.24933 -4.013331,-10.205328 -10.262661,-10.205328 -6.363996,0 -10.377327,4.013331 -10.377327,10.377328 0,6.363996 3.955997,10.262661 10.319994,10.262661 6.24933,0 10.319994,-4.070665 10.319994,-10.434661 z m -2.407998,0.05733 c 0,5.045331 -2.923999,8.083996 -7.911996,8.083996 -5.102664,0 -7.854662,-2.809332 -7.854662,-8.026663 0,-4.987997 2.866665,-8.083995 7.854662,-8.083995 5.04533,0 7.911996,2.923998 7.911996,8.026662 z m -5.733331,1.261333 c 1.605333,-0.516 2.407999,-1.605333 2.407999,-3.267998 0,-2.694666 -1.719999,-3.611998 -4.471998,-3.611998 h -4.242664 v 11.29466 h 2.465332 V 28.94459 h 1.318666 l 2.407999,4.070664 h 2.923998 z m -3.841331,-1.547999 v -3.325332 h 1.490666 c 1.433333,0 2.178665,0.344 2.178665,1.662666 0,1.089333 -0.745332,1.662666 -2.178665,1.662666 z"></path>
</g></svg>