<svg xmlns="http://www.w3.org/2000/svg" viewBox="0 0 100 100" width="100" height="100"><g><rect x="0" y="0" width="100" height="100" fill="none" stroke="none" stroke-width="0"/>
<path fill="#222022" stroke-width="0.619423" d="m 1.6785831,17.07127 3.9229934,21.679812 4.1295078,22.918657 2.3744357,13.627309 1.032392,5.471366 4.645674,0.722866 h 13.62731 55.74809 L 93.559478,44.325889 98.30859,17.07127 h -6.194223 l -1.238848,11.149617 c -3.213561,-0.930249 -4.710096,-4.172435 -7.433077,-5.987778 -1.907204,-1.271552 -4.572582,-1.663213 -6.813658,-1.4453 -3.543715,0.344524 -5.652851,2.58888 -8.052494,4.955385 -1.326192,1.307912 -2.879702,3.195667 -4.955392,2.993858 -2.44238,-0.237424 -3.578404,-2.655715 -5.058646,-4.232703 -2.257043,-2.405097 -5.861162,-4.040002 -9.188085,-3.71654 -2.382301,0.231602 -5.112099,1.421762 -6.813654,3.097116 -1.709361,1.683035 -2.844206,4.586643 -5.574809,4.852127 -3.549852,0.345143 -6.074125,-4.772035 -8.671924,-6.503943 -7.676078,-5.117365 -13.080793,2.69796 -18.5826957,6.607202 L 7.8728153,17.07127 H 1.6785831 M 89.636671,34.415118 82.203594,75.916472 H 17.783586 c 0,-10.023569 -3.577354,-20.429939 -4.955385,-30.351736 -0.373388,-2.688297 -0.896306,-5.377894 -1.342104,-8.052501 -0.156033,-0.936444 -0.774279,-2.081943 -0.206454,-2.993858 0.698833,-1.122333 2.982336,-1.653055 4.02625,-2.580951 1.929565,-1.715182 3.647722,-4.519497 6.194232,-5.368355 2.579773,-0.859883 4.542292,1.261642 6.194232,2.890662 2.554314,2.518823 5.395857,5.280026 9.291347,4.955385 2.659927,-0.221629 5.524264,-1.792547 7.32982,-3.716538 1.710847,-1.823024 2.852754,-4.036533 5.678067,-4.232705 3.101634,-0.215435 4.480283,2.296389 6.297485,4.232705 1.805565,1.923991 4.670018,3.494909 7.329822,3.716538 3.663274,0.305252 6.261748,-1.925724 8.671924,-4.335962 1.503968,-1.504021 3.225964,-3.716538 5.57481,-3.716538 3.133046,0 5.349338,3.722547 7.433077,5.574808 1.318759,1.172011 2.801033,1.71029 4.335962,2.477692 z"/>
</g></svg>